<svg height="128" viewBox="0 0 79 128" width="79" xmlns="http://www.w3.org/2000/svg"><g fill="none" fill-rule="evenodd"><path d="m74.79 3.46c-1-1.54-2.24-3.46-4.73-3.46s-3.73 1.92-4.73 3.46-1.72 2.54-3.06 2.54-2-1-3.05-2.54-2.22-3.46-4.73-3.46-3.73 1.92-4.73 3.46-1.76 2.54-3.06 2.54-2-1-3.05-2.54-2.24-3.46-4.73-3.46-3.73 1.92-4.73 3.46-1.72 2.54-3.05 2.54-2-1-3.05-2.54-2.25-3.46-4.74-3.46-3.73 1.92-4.73 3.46-1.72 2.54-3.05 2.54-2-1-3.05-2.54-2.25-3.46-4.74-3.46-3.73 1.92-4.73 3.46-1.72 2.54-3.05 2.54v2c2.49 0 3.73-1.92 4.73-3.46s1.72-2.54 3.05-2.54 2 1 3.05 2.54 2.25 3.46 4.74 3.46 3.73-1.92 4.73-3.46 1.7-2.54 3.05-2.54 2 1 3.05 2.54 2.25 3.46 4.74 3.46 3.73-1.92 4.73-3.46 1.71-2.54 3.05-2.54 2 1 3.05 2.54 2.24 3.46 4.73 3.46 3.73-1.92 4.73-3.46 1.72-2.54 3.06-2.54 2 1 3.05 2.54 2.24 3.46 4.73 3.46 3.73-1.92 4.73-3.46 1.72-2.54 3.06-2.54 2 1 3.05 2.54 2.24 3.46 4.73 3.46h.37v-2c-.1231511.00948148-.2468489.00948148-.37 0-1.33 0-2.03-1-3.05-2.54z" fill="#fff"/><path d="m39 29.5v97.078125" stroke="#fff" stroke-linecap="square"/></g></svg>